<svg width="181" height="181" viewBox="0 0 181 181" fill="none" xmlns="http://www.w3.org/2000/svg">
    <circle cx="90.5" cy="90.5" r="90.5" fill="black"/>
    <path d="M6.168 99.24C5.096 99.24 4.136 98.976 3.288 98.448C2.456 97.92 1.792 97.2 1.296 96.288C0.816 95.376 0.576 94.336 0.576 93.168C0.576 92 0.816 90.96 1.296 90.048C1.792 89.136 2.456 88.416 3.288 87.888C4.136 87.36 5.096 87.096 6.168 87.096C6.952 87.096 7.656 87.248 8.28 87.552C8.92 87.856 9.44 88.28 9.84 88.824C10.24 89.352 10.464 89.96 10.512 90.648V95.688C10.464 96.376 10.24 96.992 9.84 97.536C9.456 98.064 8.944 98.48 8.304 98.784C7.664 99.088 6.952 99.24 6.168 99.24ZM6.912 95.928C7.696 95.928 8.328 95.672 8.808 95.16C9.288 94.632 9.528 93.968 9.528 93.168C9.528 92.624 9.416 92.144 9.192 91.728C8.984 91.312 8.68 90.992 8.28 90.768C7.896 90.528 7.448 90.408 6.936 90.408C6.424 90.408 5.968 90.528 5.568 90.768C5.184 90.992 4.872 91.312 4.632 91.728C4.408 92.144 4.296 92.624 4.296 93.168C4.296 93.696 4.408 94.168 4.632 94.584C4.856 95 5.168 95.328 5.568 95.568C5.968 95.808 6.416 95.928 6.912 95.928ZM9.384 99V95.856L9.936 93.024L9.384 90.192V87.336H12.984V99H9.384ZM18.4254 99L14.3934 87.336H17.9934L20.4894 95.808L19.4334 95.832L22.1934 87.336H25.1694L27.9534 95.832L26.8734 95.808L29.3934 87.336H32.9934L28.9614 99H25.9614L23.2494 90.936H24.1614L21.4014 99H18.4254ZM39.9388 99.264C38.6748 99.264 37.5468 99.008 36.5548 98.496C35.5788 97.968 34.8108 97.24 34.2508 96.312C33.6908 95.384 33.4108 94.336 33.4108 93.168C33.4108 92 33.6828 90.96 34.2268 90.048C34.7868 89.12 35.5388 88.392 36.4828 87.864C37.4268 87.336 38.4908 87.072 39.6748 87.072C40.8268 87.072 41.8428 87.32 42.7228 87.816C43.6028 88.312 44.2908 89 44.7868 89.88C45.2988 90.76 45.5548 91.768 45.5548 92.904C45.5548 93.112 45.5388 93.336 45.5068 93.576C45.4908 93.8 45.4508 94.064 45.3868 94.368L35.3308 94.392V91.872L43.8268 91.848L42.2428 92.904C42.2268 92.232 42.1228 91.68 41.9308 91.248C41.7388 90.8 41.4508 90.464 41.0668 90.24C40.6988 90 40.2428 89.88 39.6988 89.88C39.1228 89.88 38.6188 90.016 38.1868 90.288C37.7708 90.544 37.4428 90.912 37.2028 91.392C36.9788 91.872 36.8668 92.456 36.8668 93.144C36.8668 93.832 36.9868 94.424 37.2268 94.92C37.4828 95.4 37.8348 95.776 38.2828 96.048C38.7468 96.304 39.2908 96.432 39.9148 96.432C40.4908 96.432 41.0108 96.336 41.4748 96.144C41.9388 95.936 42.3468 95.632 42.6988 95.232L44.7148 97.248C44.1388 97.92 43.4428 98.424 42.6268 98.76C41.8108 99.096 40.9148 99.264 39.9388 99.264ZM51.5753 99.288C50.8873 99.288 50.2073 99.2 49.5353 99.024C48.8793 98.848 48.2633 98.6 47.6873 98.28C47.1273 97.944 46.6473 97.56 46.2473 97.128L48.3353 95.016C48.7193 95.432 49.1753 95.76 49.7033 96C50.2313 96.224 50.8073 96.336 51.4313 96.336C51.8633 96.336 52.1913 96.272 52.4153 96.144C52.6553 96.016 52.7753 95.84 52.7753 95.616C52.7753 95.328 52.6313 95.112 52.3433 94.968C52.0713 94.808 51.7193 94.672 51.2873 94.56C50.8553 94.432 50.3993 94.296 49.9193 94.152C49.4392 94.008 48.9833 93.808 48.5513 93.552C48.1193 93.296 47.7673 92.944 47.4953 92.496C47.2233 92.032 47.0873 91.448 47.0873 90.744C47.0873 89.992 47.2793 89.344 47.6633 88.8C48.0473 88.24 48.5913 87.8 49.2953 87.48C49.9993 87.16 50.8233 87 51.7673 87C52.7593 87 53.6713 87.176 54.5033 87.528C55.3513 87.864 56.0393 88.368 56.5673 89.04L54.4793 91.152C54.1113 90.72 53.6953 90.416 53.2313 90.24C52.7833 90.064 52.3433 89.976 51.9113 89.976C51.4953 89.976 51.1833 90.04 50.9753 90.168C50.7673 90.28 50.6633 90.448 50.6633 90.672C50.6633 90.912 50.7993 91.104 51.0713 91.248C51.3433 91.392 51.6953 91.52 52.1273 91.632C52.5593 91.744 53.0153 91.88 53.4953 92.04C53.9753 92.2 54.4313 92.416 54.8633 92.688C55.2953 92.96 55.6473 93.328 55.9193 93.792C56.1913 94.24 56.3273 94.832 56.3273 95.568C56.3273 96.704 55.8953 97.608 55.0313 98.28C54.1833 98.952 53.0313 99.288 51.5753 99.288ZM63.9354 99.264C62.7354 99.264 61.6474 99 60.6714 98.472C59.7114 97.928 58.9514 97.192 58.3914 96.264C57.8314 95.336 57.5514 94.296 57.5514 93.144C57.5514 91.992 57.8314 90.96 58.3914 90.048C58.9514 89.136 59.7114 88.416 60.6714 87.888C61.6314 87.344 62.7194 87.072 63.9354 87.072C65.1514 87.072 66.2394 87.336 67.1994 87.864C68.1594 88.392 68.9194 89.12 69.4794 90.048C70.0394 90.96 70.3194 91.992 70.3194 93.144C70.3194 94.296 70.0394 95.336 69.4794 96.264C68.9194 97.192 68.1594 97.928 67.1994 98.472C66.2394 99 65.1514 99.264 63.9354 99.264ZM63.9354 95.928C64.4634 95.928 64.9274 95.816 65.3274 95.592C65.7274 95.352 66.0314 95.024 66.2394 94.608C66.4634 94.176 66.5754 93.688 66.5754 93.144C66.5754 92.6 66.4634 92.128 66.2394 91.728C66.0154 91.312 65.7034 90.992 65.3034 90.768C64.9194 90.528 64.4634 90.408 63.9354 90.408C63.4234 90.408 62.9674 90.528 62.5674 90.768C62.1674 90.992 61.8554 91.312 61.6314 91.728C61.4074 92.144 61.2954 92.624 61.2954 93.168C61.2954 93.696 61.4074 94.176 61.6314 94.608C61.8554 95.024 62.1674 95.352 62.5674 95.592C62.9674 95.816 63.4234 95.928 63.9354 95.928ZM72.1476 99V87.336H75.8196V99H72.1476ZM79.6116 99V92.184C79.6116 91.592 79.4276 91.136 79.0596 90.816C78.7076 90.48 78.2676 90.312 77.7396 90.312C77.3716 90.312 77.0436 90.392 76.7556 90.552C76.4676 90.696 76.2356 90.904 76.0596 91.176C75.8996 91.448 75.8196 91.784 75.8196 92.184L74.4036 91.56C74.4036 90.632 74.6036 89.84 75.0036 89.184C75.4036 88.512 75.9476 88 76.6356 87.648C77.3236 87.28 78.0996 87.096 78.9636 87.096C79.7796 87.096 80.5076 87.28 81.1476 87.648C81.8036 88.016 82.3236 88.528 82.7076 89.184C83.0916 89.84 83.2836 90.624 83.2836 91.536V99H79.6116ZM87.0756 99V92.184C87.0756 91.592 86.8916 91.136 86.5236 90.816C86.1716 90.48 85.7316 90.312 85.2036 90.312C84.8356 90.312 84.5076 90.392 84.2196 90.552C83.9316 90.696 83.6996 90.904 83.5236 91.176C83.3636 91.448 83.2836 91.784 83.2836 92.184L81.1716 91.896C81.2036 90.904 81.4356 90.056 81.8676 89.352C82.3156 88.632 82.8996 88.08 83.6196 87.696C84.3556 87.296 85.1796 87.096 86.0916 87.096C86.9876 87.096 87.7796 87.288 88.4676 87.672C89.1716 88.04 89.7236 88.576 90.1236 89.28C90.5396 89.968 90.7476 90.8 90.7476 91.776V99H87.0756ZM98.8607 99.264C97.5967 99.264 96.4687 99.008 95.4767 98.496C94.5007 97.968 93.7327 97.24 93.1727 96.312C92.6127 95.384 92.3327 94.336 92.3327 93.168C92.3327 92 92.6047 90.96 93.1487 90.048C93.7087 89.12 94.4607 88.392 95.4047 87.864C96.3487 87.336 97.4127 87.072 98.5967 87.072C99.7487 87.072 100.765 87.32 101.645 87.816C102.525 88.312 103.213 89 103.709 89.88C104.221 90.76 104.477 91.768 104.477 92.904C104.477 93.112 104.461 93.336 104.429 93.576C104.413 93.8 104.373 94.064 104.309 94.368L94.2527 94.392V91.872L102.749 91.848L101.165 92.904C101.149 92.232 101.045 91.68 100.853 91.248C100.661 90.8 100.373 90.464 99.9887 90.24C99.6207 90 99.1647 89.88 98.6207 89.88C98.0447 89.88 97.5407 90.016 97.1087 90.288C96.6927 90.544 96.3647 90.912 96.1247 91.392C95.9007 91.872 95.7887 92.456 95.7887 93.144C95.7887 93.832 95.9087 94.424 96.1487 94.92C96.4047 95.4 96.7567 95.776 97.2047 96.048C97.6687 96.304 98.2127 96.432 98.8367 96.432C99.4127 96.432 99.9327 96.336 100.397 96.144C100.861 95.936 101.269 95.632 101.621 95.232L103.637 97.248C103.061 97.92 102.365 98.424 101.549 98.76C100.733 99.096 99.8367 99.264 98.8607 99.264Z" fill="white"/>
    <path d="M107.737 99V86.328C107.737 85.384 107.945 84.536 108.361 83.784C108.793 83.016 109.393 82.416 110.161 81.984C110.929 81.536 111.841 81.312 112.897 81.312C113.697 81.312 114.393 81.448 114.985 81.72C115.593 81.976 116.121 82.336 116.569 82.8L114.265 85.104C114.105 84.944 113.921 84.824 113.713 84.744C113.521 84.648 113.289 84.6 113.017 84.6C112.521 84.6 112.129 84.744 111.841 85.032C111.553 85.32 111.409 85.712 111.409 86.208V99H107.737ZM105.169 90.456V87.336H114.769V90.456H105.169ZM121.803 99.264C120.603 99.264 119.515 99 118.539 98.472C117.579 97.928 116.819 97.192 116.259 96.264C115.699 95.336 115.419 94.296 115.419 93.144C115.419 91.992 115.699 90.96 116.259 90.048C116.819 89.136 117.579 88.416 118.539 87.888C119.499 87.344 120.587 87.072 121.803 87.072C123.019 87.072 124.107 87.336 125.067 87.864C126.027 88.392 126.787 89.12 127.347 90.048C127.907 90.96 128.187 91.992 128.187 93.144C128.187 94.296 127.907 95.336 127.347 96.264C126.787 97.192 126.027 97.928 125.067 98.472C124.107 99 123.019 99.264 121.803 99.264ZM121.803 95.928C122.331 95.928 122.795 95.816 123.195 95.592C123.595 95.352 123.899 95.024 124.107 94.608C124.331 94.176 124.443 93.688 124.443 93.144C124.443 92.6 124.331 92.128 124.107 91.728C123.883 91.312 123.571 90.992 123.171 90.768C122.787 90.528 122.331 90.408 121.803 90.408C121.291 90.408 120.835 90.528 120.435 90.768C120.035 90.992 119.723 91.312 119.499 91.728C119.275 92.144 119.163 92.624 119.163 93.168C119.163 93.696 119.275 94.176 119.499 94.608C119.723 95.024 120.035 95.352 120.435 95.592C120.835 95.816 121.291 95.928 121.803 95.928ZM135.631 99.264C134.431 99.264 133.343 99 132.367 98.472C131.407 97.928 130.647 97.192 130.087 96.264C129.527 95.336 129.247 94.296 129.247 93.144C129.247 91.992 129.527 90.96 130.087 90.048C130.647 89.136 131.407 88.416 132.367 87.888C133.327 87.344 134.415 87.072 135.631 87.072C136.847 87.072 137.935 87.336 138.895 87.864C139.855 88.392 140.615 89.12 141.175 90.048C141.735 90.96 142.015 91.992 142.015 93.144C142.015 94.296 141.735 95.336 141.175 96.264C140.615 97.192 139.855 97.928 138.895 98.472C137.935 99 136.847 99.264 135.631 99.264ZM135.631 95.928C136.159 95.928 136.623 95.816 137.023 95.592C137.423 95.352 137.727 95.024 137.935 94.608C138.159 94.176 138.271 93.688 138.271 93.144C138.271 92.6 138.159 92.128 137.935 91.728C137.711 91.312 137.399 90.992 136.999 90.768C136.615 90.528 136.159 90.408 135.631 90.408C135.119 90.408 134.663 90.528 134.263 90.768C133.863 90.992 133.551 91.312 133.327 91.728C133.103 92.144 132.991 92.624 132.991 93.168C132.991 93.696 133.103 94.176 133.327 94.608C133.551 95.024 133.863 95.352 134.263 95.592C134.663 95.816 135.119 95.928 135.631 95.928ZM148.811 99.24C147.707 99.24 146.723 98.976 145.859 98.448C145.011 97.92 144.339 97.2 143.843 96.288C143.363 95.376 143.123 94.336 143.123 93.168C143.123 92 143.363 90.96 143.843 90.048C144.339 89.136 145.011 88.416 145.859 87.888C146.723 87.36 147.707 87.096 148.811 87.096C149.611 87.096 150.331 87.248 150.971 87.552C151.627 87.856 152.163 88.28 152.579 88.824C153.011 89.352 153.251 89.96 153.299 90.648V95.568C153.251 96.256 153.019 96.88 152.603 97.44C152.187 97.984 151.651 98.424 150.995 98.76C150.339 99.08 149.611 99.24 148.811 99.24ZM149.459 95.928C149.987 95.928 150.443 95.816 150.827 95.592C151.211 95.352 151.515 95.024 151.739 94.608C151.963 94.192 152.075 93.712 152.075 93.168C152.075 92.624 151.963 92.152 151.739 91.752C151.531 91.336 151.227 91.008 150.827 90.768C150.443 90.528 149.995 90.408 149.483 90.408C148.971 90.408 148.515 90.528 148.115 90.768C147.731 91.008 147.419 91.336 147.179 91.752C146.955 92.168 146.843 92.64 146.843 93.168C146.843 93.696 146.955 94.168 147.179 94.584C147.403 95 147.715 95.328 148.115 95.568C148.515 95.808 148.963 95.928 149.459 95.928ZM155.531 99H151.931V95.856L152.483 93.024L151.859 90.192V81.576H155.531V99Z" fill="#FF8A00"/>
    <path d="M172 100L171.445 100.832C171.752 101.037 172.147 101.056 172.472 100.882C172.797 100.708 173 100.369 173 100H172ZM169 98.0002L169.555 97.1682C169.219 96.9442 168.781 96.9442 168.445 97.1682L169 98.0002ZM166 100H165C165 100.369 165.203 100.708 165.528 100.882C165.853 101.056 166.248 101.037 166.555 100.832L166 100ZM165.751 81.5373L165.671 82.5341L165.751 81.5373ZM167.435 80.8399L166.673 80.1918L166.673 80.1918L167.435 80.8399ZM163.532 83.6862L162.535 83.7665L163.532 83.6862ZM165.686 81.5321L165.767 80.5353L165.686 81.5321ZM162.84 85.4349L163.488 86.1965L163.488 86.1965L162.84 85.4349ZM163.537 83.751L164.534 83.6707L163.537 83.751ZM162.79 88.5234L162.142 89.285L162.142 89.285L162.79 88.5234ZM162.79 85.477L162.142 84.7154L162.142 84.7154L162.79 85.477ZM163.537 90.2494L162.541 90.1691L162.541 90.1691L163.537 90.2494ZM162.84 88.5655L163.488 87.8039L163.488 87.8039L162.84 88.5655ZM165.686 92.4683L165.767 93.4651L165.767 93.4651L165.686 92.4683ZM163.532 90.3142L164.529 90.3945L164.529 90.3945L163.532 90.3142ZM167.435 93.1605L168.196 92.5125L168.196 92.5125L167.435 93.1605ZM165.751 92.4631L165.671 91.4663L165.671 91.4663L165.751 92.4631ZM170.523 93.2101L171.285 93.8581L171.285 93.8581L170.523 93.2101ZM167.477 93.2101L166.715 93.8581L166.715 93.8581L167.477 93.2101ZM172.249 92.4631L172.33 91.4663L172.33 91.4663L172.249 92.4631ZM170.566 93.1605L169.804 92.5125L169.804 92.5125L170.566 93.1605ZM174.468 90.3142L175.465 90.2339L175.465 90.2338L174.468 90.3142ZM172.314 92.4683L172.234 93.4651L172.234 93.4651L172.314 92.4683ZM175.161 88.5655L175.809 89.3271L175.809 89.3271L175.161 88.5655ZM174.463 90.2494L173.466 90.3297L173.466 90.3297L174.463 90.2494ZM175.21 85.477L175.858 84.7154L175.858 84.7154L175.21 85.477ZM175.21 88.5234L174.562 87.7618L174.562 87.7618L175.21 88.5234ZM174.463 83.751L173.466 83.6707L173.466 83.6707L174.463 83.751ZM175.161 85.4349L174.513 86.1965L174.513 86.1965L175.161 85.4349ZM172.314 81.5321L172.234 80.5353L172.234 80.5353L172.314 81.5321ZM174.468 83.6862L175.465 83.7665L175.465 83.7665L174.468 83.6862ZM170.566 80.8399L171.327 80.1918L171.327 80.1918L170.566 80.8399ZM172.249 81.5373L172.33 82.5341L172.33 82.5341L172.249 81.5373ZM170.523 80.7903L169.762 81.4384L169.762 81.4384L170.523 80.7903ZM167.477 80.7903L168.239 81.4384L168.239 81.4384L167.477 80.7903ZM166 92.4586L166.044 91.4595L166 92.4586ZM172.555 99.1682L169.555 97.1682L168.445 98.8323L171.445 100.832L172.555 99.1682ZM168.445 97.1682L165.445 99.1682L166.555 100.832L169.555 98.8323L168.445 97.1682ZM169.762 81.4384L169.804 81.4879L171.327 80.1918L171.285 80.1423L169.762 81.4384ZM172.33 82.5341L172.394 82.5289L172.234 80.5353L172.169 80.5405L172.33 82.5341ZM173.472 83.6059L173.466 83.6707L175.46 83.8313L175.465 83.7665L173.472 83.6059ZM174.513 86.1965L174.562 86.2386L175.858 84.7154L175.809 84.6733L174.513 86.1965ZM174.562 87.7618L174.512 87.8039L175.809 89.3271L175.858 89.285L174.562 87.7618ZM173.466 90.3297L173.472 90.3945L175.465 90.2338L175.46 90.1691L173.466 90.3297ZM172.394 91.4715L172.33 91.4663L172.169 93.4599L172.234 93.4651L172.394 91.4715ZM169.804 92.5125L169.762 92.562L171.285 93.8581L171.327 93.8086L169.804 92.5125ZM168.239 92.562L168.196 92.5125L166.673 93.8086L166.715 93.8581L168.239 92.562ZM165.671 91.4663L165.606 91.4715L165.767 93.4651L165.831 93.4599L165.671 91.4663ZM164.529 90.3945L164.534 90.3297L162.541 90.1691L162.535 90.2339L164.529 90.3945ZM163.488 87.8039L163.438 87.7618L162.142 89.285L162.192 89.3271L163.488 87.8039ZM163.438 86.2386L163.488 86.1965L162.192 84.6732L162.142 84.7154L163.438 86.2386ZM164.534 83.6707L164.529 83.6059L162.535 83.7665L162.541 83.8313L164.534 83.6707ZM165.606 82.5289L165.671 82.5341L165.831 80.5405L165.767 80.5353L165.606 82.5289ZM168.196 81.4879L168.239 81.4384L166.715 80.1423L166.673 80.1918L168.196 81.4879ZM165.671 82.5341C166.632 82.6115 167.572 82.2223 168.196 81.4879L166.673 80.1918C166.465 80.4366 166.152 80.5664 165.831 80.5405L165.671 82.5341ZM164.529 83.6059C164.479 82.9918 164.992 82.4794 165.606 82.5289L165.767 80.5353C163.924 80.3869 162.387 81.924 162.535 83.7665L164.529 83.6059ZM163.488 86.1965C164.222 85.5716 164.612 84.6319 164.534 83.6707L162.541 83.8313C162.566 84.1517 162.437 84.465 162.192 84.6733L163.488 86.1965ZM163.438 87.7618C162.969 87.3625 162.969 86.6379 163.438 86.2386L162.142 84.7154C160.734 85.9133 160.734 88.0871 162.142 89.285L163.438 87.7618ZM164.534 90.3297C164.612 89.3685 164.222 88.4288 163.488 87.8039L162.192 89.3271C162.437 89.5354 162.566 89.8487 162.541 90.1691L164.534 90.3297ZM165.606 91.4715C164.992 91.521 164.479 91.0086 164.529 90.3945L162.535 90.2339C162.387 92.0764 163.924 93.6135 165.767 93.4651L165.606 91.4715ZM169.762 92.562C169.363 93.0313 168.638 93.0313 168.239 92.562L166.715 93.8581C167.913 95.2659 170.087 95.2659 171.285 93.8581L169.762 92.562ZM173.472 90.3945C173.521 91.0086 173.009 91.521 172.394 91.4715L172.234 93.4651C174.076 93.6135 175.614 92.0764 175.465 90.2339L173.472 90.3945ZM174.512 87.8039C173.778 88.4288 173.389 89.3685 173.466 90.3297L175.46 90.1691C175.434 89.8487 175.564 89.5354 175.809 89.3271L174.512 87.8039ZM174.562 86.2386C175.031 86.6379 175.031 87.3625 174.562 87.7618L175.858 89.285C177.266 88.0871 177.266 85.9133 175.858 84.7154L174.562 86.2386ZM173.466 83.6707C173.389 84.6319 173.778 85.5716 174.513 86.1965L175.809 84.6733C175.564 84.465 175.434 84.1517 175.46 83.8313L173.466 83.6707ZM172.394 82.5289C173.009 82.4794 173.521 82.9918 173.472 83.6059L175.465 83.7665C175.614 81.924 174.076 80.3869 172.234 80.5353L172.394 82.5289ZM169.804 81.4879C170.429 82.2223 171.369 82.6115 172.33 82.5341L172.169 80.5405C171.849 80.5664 171.535 80.4366 171.327 80.1918L169.804 81.4879ZM171.285 80.1423C170.087 78.7345 167.913 78.7345 166.715 80.1423L168.239 81.4384C168.638 80.9691 169.362 80.9691 169.762 81.4384L171.285 80.1423ZM168.196 92.5125C167.653 91.8737 166.871 91.4961 166.044 91.4595L165.956 93.4576C166.232 93.4698 166.492 93.5957 166.673 93.8086L168.196 92.5125ZM166.044 91.4595C165.921 91.4541 165.796 91.4562 165.671 91.4663L165.831 93.4599C165.873 93.4565 165.915 93.4558 165.956 93.4576L166.044 91.4595ZM167 100V92.4586H165V100H167ZM172.33 91.4663C172.205 91.4562 172.08 91.4541 171.956 91.4595L172.044 93.4576C172.086 93.4558 172.127 93.4565 172.169 93.4599L172.33 91.4663ZM171.956 91.4595C171.129 91.4961 170.347 91.8737 169.804 92.5125L171.327 93.8086C171.508 93.5957 171.769 93.4698 172.044 93.4576L171.956 91.4595ZM171 92.4586V100H173V92.4586H171Z" fill="#FF8A00"/>
    <path d="M171 86L168 89L167 88" stroke="#FF8A00" stroke-width="2" stroke-linecap="round" stroke-linejoin="round"/>
</svg>