<svg width="181" height="30" viewBox="0 0 181 30" fill="none" xmlns="http://www.w3.org/2000/svg">
    <path d="M6.168 24.24C5.096 24.24 4.136 23.976 3.288 23.448C2.456 22.92 1.792 22.2 1.296 21.288C0.816 20.376 0.576 19.336 0.576 18.168C0.576 17 0.816 15.96 1.296 15.048C1.792 14.136 2.456 13.416 3.288 12.888C4.136 12.36 5.096 12.096 6.168 12.096C6.952 12.096 7.656 12.248 8.28 12.552C8.92 12.856 9.44 13.28 9.84 13.824C10.24 14.352 10.464 14.96 10.512 15.648V20.688C10.464 21.376 10.24 21.992 9.84 22.536C9.456 23.064 8.944 23.48 8.304 23.784C7.664 24.088 6.952 24.24 6.168 24.24ZM6.912 20.928C7.696 20.928 8.328 20.672 8.808 20.16C9.288 19.632 9.528 18.968 9.528 18.168C9.528 17.624 9.416 17.144 9.192 16.728C8.984 16.312 8.68 15.992 8.28 15.768C7.896 15.528 7.448 15.408 6.936 15.408C6.424 15.408 5.968 15.528 5.568 15.768C5.184 15.992 4.872 16.312 4.632 16.728C4.408 17.144 4.296 17.624 4.296 18.168C4.296 18.696 4.408 19.168 4.632 19.584C4.856 20 5.168 20.328 5.568 20.568C5.968 20.808 6.416 20.928 6.912 20.928ZM9.384 24V20.856L9.936 18.024L9.384 15.192V12.336H12.984V24H9.384ZM18.4254 24L14.3934 12.336H17.9934L20.4894 20.808L19.4334 20.832L22.1934 12.336H25.1694L27.9534 20.832L26.8734 20.808L29.3934 12.336H32.9934L28.9614 24H25.9614L23.2494 15.936H24.1614L21.4014 24H18.4254ZM39.9388 24.264C38.6748 24.264 37.5468 24.008 36.5548 23.496C35.5788 22.968 34.8108 22.24 34.2508 21.312C33.6908 20.384 33.4108 19.336 33.4108 18.168C33.4108 17 33.6828 15.96 34.2268 15.048C34.7868 14.12 35.5388 13.392 36.4828 12.864C37.4268 12.336 38.4908 12.072 39.6748 12.072C40.8268 12.072 41.8428 12.32 42.7228 12.816C43.6028 13.312 44.2908 14 44.7868 14.88C45.2988 15.76 45.5548 16.768 45.5548 17.904C45.5548 18.112 45.5388 18.336 45.5068 18.576C45.4908 18.8 45.4508 19.064 45.3868 19.368L35.3308 19.392V16.872L43.8268 16.848L42.2428 17.904C42.2268 17.232 42.1228 16.68 41.9308 16.248C41.7388 15.8 41.4508 15.464 41.0668 15.24C40.6988 15 40.2428 14.88 39.6988 14.88C39.1228 14.88 38.6188 15.016 38.1868 15.288C37.7708 15.544 37.4428 15.912 37.2028 16.392C36.9788 16.872 36.8668 17.456 36.8668 18.144C36.8668 18.832 36.9868 19.424 37.2268 19.92C37.4828 20.4 37.8348 20.776 38.2828 21.048C38.7468 21.304 39.2908 21.432 39.9148 21.432C40.4908 21.432 41.0108 21.336 41.4748 21.144C41.9388 20.936 42.3468 20.632 42.6988 20.232L44.7148 22.248C44.1388 22.92 43.4428 23.424 42.6268 23.76C41.8108 24.096 40.9148 24.264 39.9388 24.264ZM51.5753 24.288C50.8873 24.288 50.2073 24.2 49.5353 24.024C48.8793 23.848 48.2633 23.6 47.6873 23.28C47.1273 22.944 46.6473 22.56 46.2473 22.128L48.3353 20.016C48.7193 20.432 49.1753 20.76 49.7033 21C50.2313 21.224 50.8073 21.336 51.4313 21.336C51.8633 21.336 52.1913 21.272 52.4153 21.144C52.6553 21.016 52.7753 20.84 52.7753 20.616C52.7753 20.328 52.6313 20.112 52.3433 19.968C52.0713 19.808 51.7193 19.672 51.2873 19.56C50.8553 19.432 50.3993 19.296 49.9193 19.152C49.4392 19.008 48.9833 18.808 48.5513 18.552C48.1193 18.296 47.7673 17.944 47.4953 17.496C47.2233 17.032 47.0873 16.448 47.0873 15.744C47.0873 14.992 47.2793 14.344 47.6633 13.8C48.0473 13.24 48.5913 12.8 49.2953 12.48C49.9993 12.16 50.8233 12 51.7673 12C52.7593 12 53.6713 12.176 54.5033 12.528C55.3513 12.864 56.0393 13.368 56.5673 14.04L54.4793 16.152C54.1113 15.72 53.6953 15.416 53.2313 15.24C52.7833 15.064 52.3433 14.976 51.9113 14.976C51.4953 14.976 51.1833 15.04 50.9753 15.168C50.7673 15.28 50.6633 15.448 50.6633 15.672C50.6633 15.912 50.7993 16.104 51.0713 16.248C51.3433 16.392 51.6953 16.52 52.1273 16.632C52.5593 16.744 53.0153 16.88 53.4953 17.04C53.9753 17.2 54.4313 17.416 54.8633 17.688C55.2953 17.96 55.6473 18.328 55.9193 18.792C56.1913 19.24 56.3273 19.832 56.3273 20.568C56.3273 21.704 55.8953 22.608 55.0313 23.28C54.1833 23.952 53.0313 24.288 51.5753 24.288ZM63.9354 24.264C62.7354 24.264 61.6474 24 60.6714 23.472C59.7114 22.928 58.9514 22.192 58.3914 21.264C57.8314 20.336 57.5514 19.296 57.5514 18.144C57.5514 16.992 57.8314 15.96 58.3914 15.048C58.9514 14.136 59.7114 13.416 60.6714 12.888C61.6314 12.344 62.7194 12.072 63.9354 12.072C65.1514 12.072 66.2394 12.336 67.1994 12.864C68.1594 13.392 68.9194 14.12 69.4794 15.048C70.0394 15.96 70.3194 16.992 70.3194 18.144C70.3194 19.296 70.0394 20.336 69.4794 21.264C68.9194 22.192 68.1594 22.928 67.1994 23.472C66.2394 24 65.1514 24.264 63.9354 24.264ZM63.9354 20.928C64.4634 20.928 64.9274 20.816 65.3274 20.592C65.7274 20.352 66.0314 20.024 66.2394 19.608C66.4634 19.176 66.5754 18.688 66.5754 18.144C66.5754 17.6 66.4634 17.128 66.2394 16.728C66.0154 16.312 65.7034 15.992 65.3034 15.768C64.9194 15.528 64.4634 15.408 63.9354 15.408C63.4234 15.408 62.9674 15.528 62.5674 15.768C62.1674 15.992 61.8554 16.312 61.6314 16.728C61.4074 17.144 61.2954 17.624 61.2954 18.168C61.2954 18.696 61.4074 19.176 61.6314 19.608C61.8554 20.024 62.1674 20.352 62.5674 20.592C62.9674 20.816 63.4234 20.928 63.9354 20.928ZM72.1476 24V12.336H75.8196V24H72.1476ZM79.6116 24V17.184C79.6116 16.592 79.4276 16.136 79.0596 15.816C78.7076 15.48 78.2676 15.312 77.7396 15.312C77.3716 15.312 77.0436 15.392 76.7556 15.552C76.4676 15.696 76.2356 15.904 76.0596 16.176C75.8996 16.448 75.8196 16.784 75.8196 17.184L74.4036 16.56C74.4036 15.632 74.6036 14.84 75.0036 14.184C75.4036 13.512 75.9476 13 76.6356 12.648C77.3236 12.28 78.0996 12.096 78.9636 12.096C79.7796 12.096 80.5076 12.28 81.1476 12.648C81.8036 13.016 82.3236 13.528 82.7076 14.184C83.0916 14.84 83.2836 15.624 83.2836 16.536V24H79.6116ZM87.0756 24V17.184C87.0756 16.592 86.8916 16.136 86.5236 15.816C86.1716 15.48 85.7316 15.312 85.2036 15.312C84.8356 15.312 84.5076 15.392 84.2196 15.552C83.9316 15.696 83.6996 15.904 83.5236 16.176C83.3636 16.448 83.2836 16.784 83.2836 17.184L81.1716 16.896C81.2036 15.904 81.4356 15.056 81.8676 14.352C82.3156 13.632 82.8996 13.08 83.6196 12.696C84.3556 12.296 85.1796 12.096 86.0916 12.096C86.9876 12.096 87.7796 12.288 88.4676 12.672C89.1716 13.04 89.7236 13.576 90.1236 14.28C90.5396 14.968 90.7476 15.8 90.7476 16.776V24H87.0756ZM98.8607 24.264C97.5967 24.264 96.4687 24.008 95.4767 23.496C94.5007 22.968 93.7327 22.24 93.1727 21.312C92.6127 20.384 92.3327 19.336 92.3327 18.168C92.3327 17 92.6047 15.96 93.1487 15.048C93.7087 14.12 94.4607 13.392 95.4047 12.864C96.3487 12.336 97.4127 12.072 98.5967 12.072C99.7487 12.072 100.765 12.32 101.645 12.816C102.525 13.312 103.213 14 103.709 14.88C104.221 15.76 104.477 16.768 104.477 17.904C104.477 18.112 104.461 18.336 104.429 18.576C104.413 18.8 104.373 19.064 104.309 19.368L94.2527 19.392V16.872L102.749 16.848L101.165 17.904C101.149 17.232 101.045 16.68 100.853 16.248C100.661 15.8 100.373 15.464 99.9887 15.24C99.6207 15 99.1647 14.88 98.6207 14.88C98.0447 14.88 97.5407 15.016 97.1087 15.288C96.6927 15.544 96.3647 15.912 96.1247 16.392C95.9007 16.872 95.7887 17.456 95.7887 18.144C95.7887 18.832 95.9087 19.424 96.1487 19.92C96.4047 20.4 96.7567 20.776 97.2047 21.048C97.6687 21.304 98.2127 21.432 98.8367 21.432C99.4127 21.432 99.9327 21.336 100.397 21.144C100.861 20.936 101.269 20.632 101.621 20.232L103.637 22.248C103.061 22.92 102.365 23.424 101.549 23.76C100.733 24.096 99.8367 24.264 98.8607 24.264Z" fill="white"/>
    <path d="M107.737 24V11.328C107.737 10.384 107.945 9.536 108.361 8.784C108.793 8.016 109.393 7.416 110.161 6.984C110.929 6.536 111.841 6.312 112.897 6.312C113.697 6.312 114.393 6.448 114.985 6.72C115.593 6.976 116.121 7.336 116.569 7.8L114.265 10.104C114.105 9.944 113.921 9.824 113.713 9.744C113.521 9.648 113.289 9.6 113.017 9.6C112.521 9.6 112.129 9.744 111.841 10.032C111.553 10.32 111.409 10.712 111.409 11.208V24H107.737ZM105.169 15.456V12.336H114.769V15.456H105.169ZM121.803 24.264C120.603 24.264 119.515 24 118.539 23.472C117.579 22.928 116.819 22.192 116.259 21.264C115.699 20.336 115.419 19.296 115.419 18.144C115.419 16.992 115.699 15.96 116.259 15.048C116.819 14.136 117.579 13.416 118.539 12.888C119.499 12.344 120.587 12.072 121.803 12.072C123.019 12.072 124.107 12.336 125.067 12.864C126.027 13.392 126.787 14.12 127.347 15.048C127.907 15.96 128.187 16.992 128.187 18.144C128.187 19.296 127.907 20.336 127.347 21.264C126.787 22.192 126.027 22.928 125.067 23.472C124.107 24 123.019 24.264 121.803 24.264ZM121.803 20.928C122.331 20.928 122.795 20.816 123.195 20.592C123.595 20.352 123.899 20.024 124.107 19.608C124.331 19.176 124.443 18.688 124.443 18.144C124.443 17.6 124.331 17.128 124.107 16.728C123.883 16.312 123.571 15.992 123.171 15.768C122.787 15.528 122.331 15.408 121.803 15.408C121.291 15.408 120.835 15.528 120.435 15.768C120.035 15.992 119.723 16.312 119.499 16.728C119.275 17.144 119.163 17.624 119.163 18.168C119.163 18.696 119.275 19.176 119.499 19.608C119.723 20.024 120.035 20.352 120.435 20.592C120.835 20.816 121.291 20.928 121.803 20.928ZM135.631 24.264C134.431 24.264 133.343 24 132.367 23.472C131.407 22.928 130.647 22.192 130.087 21.264C129.527 20.336 129.247 19.296 129.247 18.144C129.247 16.992 129.527 15.96 130.087 15.048C130.647 14.136 131.407 13.416 132.367 12.888C133.327 12.344 134.415 12.072 135.631 12.072C136.847 12.072 137.935 12.336 138.895 12.864C139.855 13.392 140.615 14.12 141.175 15.048C141.735 15.96 142.015 16.992 142.015 18.144C142.015 19.296 141.735 20.336 141.175 21.264C140.615 22.192 139.855 22.928 138.895 23.472C137.935 24 136.847 24.264 135.631 24.264ZM135.631 20.928C136.159 20.928 136.623 20.816 137.023 20.592C137.423 20.352 137.727 20.024 137.935 19.608C138.159 19.176 138.271 18.688 138.271 18.144C138.271 17.6 138.159 17.128 137.935 16.728C137.711 16.312 137.399 15.992 136.999 15.768C136.615 15.528 136.159 15.408 135.631 15.408C135.119 15.408 134.663 15.528 134.263 15.768C133.863 15.992 133.551 16.312 133.327 16.728C133.103 17.144 132.991 17.624 132.991 18.168C132.991 18.696 133.103 19.176 133.327 19.608C133.551 20.024 133.863 20.352 134.263 20.592C134.663 20.816 135.119 20.928 135.631 20.928ZM148.811 24.24C147.707 24.24 146.723 23.976 145.859 23.448C145.011 22.92 144.339 22.2 143.843 21.288C143.363 20.376 143.123 19.336 143.123 18.168C143.123 17 143.363 15.96 143.843 15.048C144.339 14.136 145.011 13.416 145.859 12.888C146.723 12.36 147.707 12.096 148.811 12.096C149.611 12.096 150.331 12.248 150.971 12.552C151.627 12.856 152.163 13.28 152.579 13.824C153.011 14.352 153.251 14.96 153.299 15.648V20.568C153.251 21.256 153.019 21.88 152.603 22.44C152.187 22.984 151.651 23.424 150.995 23.76C150.339 24.08 149.611 24.24 148.811 24.24ZM149.459 20.928C149.987 20.928 150.443 20.816 150.827 20.592C151.211 20.352 151.515 20.024 151.739 19.608C151.963 19.192 152.075 18.712 152.075 18.168C152.075 17.624 151.963 17.152 151.739 16.752C151.531 16.336 151.227 16.008 150.827 15.768C150.443 15.528 149.995 15.408 149.483 15.408C148.971 15.408 148.515 15.528 148.115 15.768C147.731 16.008 147.419 16.336 147.179 16.752C146.955 17.168 146.843 17.64 146.843 18.168C146.843 18.696 146.955 19.168 147.179 19.584C147.403 20 147.715 20.328 148.115 20.568C148.515 20.808 148.963 20.928 149.459 20.928ZM155.531 24H151.931V20.856L152.483 18.024L151.859 15.192V6.576H155.531V24Z" fill="#FF8A00"/>
    <path d="M172 25.0002L171.445 25.8323C171.752 26.0368 172.147 26.0559 172.472 25.8819C172.797 25.7079 173 25.369 173 25.0002H172ZM169 23.0002L169.555 22.1682C169.219 21.9442 168.781 21.9442 168.445 22.1682L169 23.0002ZM166 25.0002H165C165 25.369 165.203 25.7079 165.528 25.8819C165.853 26.0559 166.248 26.0368 166.555 25.8323L166 25.0002ZM165.751 6.53732L165.671 7.53409L165.751 6.53732ZM167.435 5.83986L166.673 5.19182L166.673 5.19182L167.435 5.83986ZM163.532 8.68624L162.535 8.76654L163.532 8.68624ZM165.686 6.5321L165.767 5.53533L165.686 6.5321ZM162.84 10.4349L163.488 11.1965L163.488 11.1965L162.84 10.4349ZM163.537 8.75104L164.534 8.67074L163.537 8.75104ZM162.79 13.5234L162.142 14.285L162.142 14.285L162.79 13.5234ZM162.79 10.477L162.142 9.71538L162.142 9.71538L162.79 10.477ZM163.537 15.2494L162.541 15.1691L162.541 15.1691L163.537 15.2494ZM162.84 13.5655L163.488 12.8039L163.488 12.8039L162.84 13.5655ZM165.686 17.4683L165.767 18.4651L165.767 18.4651L165.686 17.4683ZM163.532 15.3142L164.529 15.3945L164.529 15.3945L163.532 15.3142ZM167.435 18.1605L168.196 17.5125L168.196 17.5125L167.435 18.1605ZM165.751 17.4631L165.671 16.4663L165.671 16.4663L165.751 17.4631ZM170.523 18.2101L171.285 18.8581L171.285 18.8581L170.523 18.2101ZM167.477 18.2101L166.715 18.8581L166.715 18.8581L167.477 18.2101ZM172.249 17.4631L172.33 16.4663L172.33 16.4663L172.249 17.4631ZM170.566 18.1605L169.804 17.5125L169.804 17.5125L170.566 18.1605ZM174.468 15.3142L175.465 15.2339L175.465 15.2338L174.468 15.3142ZM172.314 17.4683L172.234 18.4651L172.234 18.4651L172.314 17.4683ZM175.161 13.5655L175.809 14.3271L175.809 14.3271L175.161 13.5655ZM174.463 15.2494L173.466 15.3297L173.466 15.3297L174.463 15.2494ZM175.21 10.477L175.858 9.71538L175.858 9.71538L175.21 10.477ZM175.21 13.5234L174.562 12.7618L174.562 12.7618L175.21 13.5234ZM174.463 8.75104L173.466 8.67074L173.466 8.67074L174.463 8.75104ZM175.161 10.4349L174.513 11.1965L174.513 11.1965L175.161 10.4349ZM172.314 6.5321L172.234 5.53533L172.234 5.53533L172.314 6.5321ZM174.468 8.68624L175.465 8.76655L175.465 8.76655L174.468 8.68624ZM170.566 5.83986L171.327 5.19182L171.327 5.19181L170.566 5.83986ZM172.249 6.53732L172.33 7.53409L172.33 7.53409L172.249 6.53732ZM170.523 5.79035L169.762 6.43839L169.762 6.43839L170.523 5.79035ZM167.477 5.79034L168.239 6.43839L168.239 6.43839L167.477 5.79034ZM166 17.4586L166.044 16.4595L166 17.4586ZM172.555 24.1682L169.555 22.1682L168.445 23.8323L171.445 25.8323L172.555 24.1682ZM168.445 22.1682L165.445 24.1682L166.555 25.8323L169.555 23.8323L168.445 22.1682ZM169.762 6.43839L169.804 6.4879L171.327 5.19181L171.285 5.1423L169.762 6.43839ZM172.33 7.53409L172.394 7.52887L172.234 5.53533L172.169 5.54055L172.33 7.53409ZM173.472 8.60594L173.466 8.67074L175.46 8.83135L175.465 8.76655L173.472 8.60594ZM174.513 11.1965L174.562 11.2386L175.858 9.71538L175.809 9.67325L174.513 11.1965ZM174.562 12.7618L174.512 12.8039L175.809 14.3271L175.858 14.285L174.562 12.7618ZM173.466 15.3297L173.472 15.3945L175.465 15.2338L175.46 15.1691L173.466 15.3297ZM172.394 16.4715L172.33 16.4663L172.169 18.4599L172.234 18.4651L172.394 16.4715ZM169.804 17.5125L169.762 17.562L171.285 18.8581L171.327 18.8086L169.804 17.5125ZM168.239 17.562L168.196 17.5125L166.673 18.8086L166.715 18.8581L168.239 17.562ZM165.671 16.4663L165.606 16.4715L165.767 18.4651L165.831 18.4599L165.671 16.4663ZM164.529 15.3945L164.534 15.3297L162.541 15.1691L162.535 15.2339L164.529 15.3945ZM163.488 12.8039L163.438 12.7618L162.142 14.285L162.192 14.3271L163.488 12.8039ZM163.438 11.2386L163.488 11.1965L162.192 9.67325L162.142 9.71538L163.438 11.2386ZM164.534 8.67074L164.529 8.60594L162.535 8.76654L162.541 8.83134L164.534 8.67074ZM165.606 7.52887L165.671 7.53409L165.831 5.54055L165.767 5.53533L165.606 7.52887ZM168.196 6.4879L168.239 6.43839L166.715 5.1423L166.673 5.19182L168.196 6.4879ZM165.671 7.53409C166.632 7.61152 167.572 7.22226 168.196 6.4879L166.673 5.19182C166.465 5.4366 166.152 5.56636 165.831 5.54055L165.671 7.53409ZM164.529 8.60594C164.479 7.99176 164.992 7.47939 165.606 7.52887L165.767 5.53533C163.924 5.38688 162.387 6.924 162.535 8.76654L164.529 8.60594ZM163.488 11.1965C164.222 10.5716 164.612 9.63185 164.534 8.67074L162.541 8.83134C162.566 9.15172 162.437 9.46497 162.192 9.67325L163.488 11.1965ZM163.438 12.7618C162.969 12.3625 162.969 11.6379 163.438 11.2386L162.142 9.71538C160.734 10.9133 160.734 13.0871 162.142 14.285L163.438 12.7618ZM164.534 15.3297C164.612 14.3685 164.222 13.4288 163.488 12.8039L162.192 14.3271C162.437 14.5354 162.566 14.8487 162.541 15.1691L164.534 15.3297ZM165.606 16.4715C164.992 16.521 164.479 16.0086 164.529 15.3945L162.535 15.2339C162.387 17.0764 163.924 18.6135 165.767 18.4651L165.606 16.4715ZM169.762 17.562C169.363 18.0313 168.638 18.0313 168.239 17.562L166.715 18.8581C167.913 20.2659 170.087 20.2659 171.285 18.8581L169.762 17.562ZM173.472 15.3945C173.521 16.0086 173.009 16.521 172.394 16.4715L172.234 18.4651C174.076 18.6135 175.614 17.0764 175.465 15.2339L173.472 15.3945ZM174.512 12.8039C173.778 13.4288 173.389 14.3685 173.466 15.3297L175.46 15.1691C175.434 14.8487 175.564 14.5354 175.809 14.3271L174.512 12.8039ZM174.562 11.2386C175.031 11.6379 175.031 12.3625 174.562 12.7618L175.858 14.285C177.266 13.0871 177.266 10.9133 175.858 9.71538L174.562 11.2386ZM173.466 8.67074C173.389 9.63185 173.778 10.5716 174.513 11.1965L175.809 9.67325C175.564 9.46497 175.434 9.15172 175.46 8.83134L173.466 8.67074ZM172.394 7.52887C173.009 7.47939 173.521 7.99176 173.472 8.60594L175.465 8.76655C175.614 6.924 174.076 5.38688 172.234 5.53533L172.394 7.52887ZM169.804 6.4879C170.429 7.22226 171.369 7.61152 172.33 7.53409L172.169 5.54055C171.849 5.56636 171.535 5.4366 171.327 5.19182L169.804 6.4879ZM171.285 5.14231C170.087 3.73447 167.913 3.73446 166.715 5.1423L168.239 6.43839C168.638 5.96911 169.362 5.96911 169.762 6.43839L171.285 5.14231ZM168.196 17.5125C167.653 16.8737 166.871 16.4961 166.044 16.4595L165.956 18.4576C166.232 18.4698 166.492 18.5957 166.673 18.8086L168.196 17.5125ZM166.044 16.4595C165.921 16.4541 165.796 16.4562 165.671 16.4663L165.831 18.4599C165.873 18.4565 165.915 18.4558 165.956 18.4576L166.044 16.4595ZM167 25.0002V17.4586H165V25.0002H167ZM172.33 16.4663C172.205 16.4562 172.08 16.4541 171.956 16.4595L172.044 18.4576C172.086 18.4558 172.127 18.4565 172.169 18.4599L172.33 16.4663ZM171.956 16.4595C171.129 16.4961 170.347 16.8737 169.804 17.5125L171.327 18.8086C171.508 18.5957 171.769 18.4698 172.044 18.4576L171.956 16.4595ZM171 17.4586V25.0002H173V17.4586H171Z" fill="#FF8A00"/>
    <path d="M171 11L168 14L167 13" stroke="#FF8A00" stroke-width="2" stroke-linecap="round" stroke-linejoin="round"/>
</svg> 